<svg width="27" height="27" viewBox="0 0 27 27" fill="none" xmlns="http://www.w3.org/2000/svg">
<path d="M23.25 0.590088H17.4167C15.8084 0.590088 14.5 1.89851 14.5 3.50676V9.34009C14.5 10.9484 15.8084 12.2568 17.4167 12.2568H23.25C24.8583 12.2568 26.1667 10.9484 26.1667 9.34009V3.50676C26.1667 1.89851 24.8583 0.590088 23.25 0.590088Z" fill="#B5995A"/>
<path d="M3.41667 12.2568H9.25C10.8583 12.2568 12.1667 10.9484 12.1667 9.34009V3.50676C12.1667 1.89851 10.8583 0.590088 9.25 0.590088H3.41667C1.80842 0.590088 0.5 1.89851 0.5 3.50676V9.34009C0.5 10.9484 1.80842 12.2568 3.41667 12.2568Z" fill="#B5995A"/>
<path d="M23.25 14.5901H17.4167C15.8084 14.5901 14.5 15.8985 14.5 17.5068V23.3401C14.5 24.9484 15.8084 26.2568 17.4167 26.2568H23.25C24.8583 26.2568 26.1667 24.9484 26.1667 23.3401V17.5068C26.1667 15.8985 24.8583 14.5901 23.25 14.5901Z" fill="#B5995A"/>
<path d="M3.41667 26.2568H9.25C10.8583 26.2568 12.1667 24.9484 12.1667 23.3401V17.5068C12.1667 15.8985 10.8583 14.5901 9.25 14.5901H3.41667C1.80842 14.5901 0.5 15.8985 0.5 17.5068V23.3401C0.5 24.9484 1.80842 26.2568 3.41667 26.2568Z" fill="#B5995A"/>
</svg>
