<svg width="213" height="25" viewBox="0 0 213 25" fill="none" xmlns="http://www.w3.org/2000/svg">
<path fill-rule="evenodd" clip-rule="evenodd" d="M101.28 24.0298C101.16 24.0298 101.04 24.0298 100.93 24.0198C100.3 24.0298 94.67 23.9298 90.81 16.9798C89.53 14.7098 87.81 12.5898 86.31 11.4398L86.08 11.2598C84.16 9.69982 81.61 9.22982 79.24 9.98982C76.98 10.7198 75.34 12.4398 74.74 14.6998C74.69 14.8798 74.65 15.0598 74.62 15.2398C74.31 16.8698 74.71 18.5298 75.76 19.9298C77.26 21.9198 79.25 22.8098 81.22 22.3498C83 21.9398 84.38 20.4898 84.73 18.6598C84.91 17.7298 84.67 16.7398 84.08 15.9298C83.19 14.7198 82.01 14.1798 80.85 14.4398C79.81 14.6798 79.01 15.5198 78.81 16.5798C78.6 17.6798 79.33 18.6498 80.38 18.9598C81.3 19.2298 80.74 20.6398 80.08 20.4898C78.17 20.0798 76.91 18.2298 77.28 16.2898C77.6 14.6098 78.87 13.2898 80.51 12.9198C82.28 12.5198 84.09 13.2998 85.34 14.9998C86.19 16.1498 86.53 17.5898 86.27 18.9498C85.81 21.3798 83.96 23.3098 81.58 23.8698C79.01 24.4598 76.37 23.3398 74.51 20.8598C73.19 19.0998 72.68 16.9998 73.08 14.9298C73.12 14.7098 73.17 14.4998 73.23 14.2898C73.97 11.5098 75.98 9.39982 78.76 8.49982C81.63 7.56982 84.73 8.14982 87.07 10.0398L87.28 10.2098C88.94 11.4798 90.77 13.7298 92.17 16.2198C95.72 22.6198 100.86 22.4598 100.91 22.4598H100.96H101.01C101.89 22.5298 102.75 22.2498 103.43 21.6698C104.13 21.0698 104.55 20.2298 104.63 19.3098C104.74 17.8998 103.7 16.6498 102.32 16.5198C101.83 16.4698 101.31 16.6698 100.93 17.0498C100.36 17.6098 100.15 18.2698 100.37 18.8698C100.55 19.3698 101.01 19.6798 101.52 19.7698C102.31 19.8998 102.21 21.3698 101.39 21.3298C100.26 21.2798 99.28 20.4798 98.89 19.4098C98.46 18.2298 98.82 16.9298 99.83 15.9398C100.53 15.2498 101.51 14.8898 102.45 14.9698C104.68 15.1698 106.35 17.1698 106.18 19.4398C106.08 20.7898 105.46 21.9998 104.44 22.8698C103.54 23.6298 102.43 24.0398 101.27 24.0398L101.28 24.0298Z" fill="white"/>
<path fill-rule="evenodd" clip-rule="evenodd" d="M110.88 24.0298C111 24.0298 111.12 24.0298 111.23 24.0198C111.86 24.0298 117.49 23.9298 121.35 16.9798C122.63 14.7098 124.35 12.5898 125.85 11.4398L126.08 11.2598C128 9.69982 130.55 9.22982 132.92 9.98982C135.18 10.7198 136.82 12.4398 137.42 14.6998C137.47 14.8798 137.51 15.0598 137.54 15.2398C137.85 16.8698 137.45 18.5298 136.4 19.9298C134.9 21.9198 132.91 22.8098 130.94 22.3498C129.16 21.9398 127.78 20.4898 127.43 18.6598C127.25 17.7298 127.49 16.7398 128.08 15.9298C128.97 14.7198 130.15 14.1798 131.31 14.4398C132.35 14.6798 133.15 15.5198 133.35 16.5798C133.56 17.6798 132.83 18.6498 131.78 18.9598C130.86 19.2298 131.42 20.6398 132.08 20.4898C133.99 20.0798 135.25 18.2298 134.88 16.2898C134.56 14.6098 133.29 13.2898 131.65 12.9198C129.88 12.5198 128.07 13.2998 126.82 14.9998C125.97 16.1498 125.63 17.5898 125.89 18.9498C126.35 21.3798 128.2 23.3098 130.58 23.8698C133.15 24.4598 135.79 23.3398 137.65 20.8598C138.97 19.0998 139.48 16.9998 139.08 14.9298C139.04 14.7098 138.99 14.4998 138.93 14.2898C138.19 11.5098 136.18 9.39982 133.4 8.49982C130.53 7.56982 127.43 8.14982 125.09 10.0398L124.88 10.2098C123.22 11.4798 121.39 13.7298 119.99 16.2198C116.44 22.6198 111.31 22.4598 111.25 22.4598H111.2H111.15C110.27 22.5298 109.41 22.2498 108.73 21.6698C108.03 21.0698 107.61 20.2298 107.53 19.3098C107.42 17.8998 108.46 16.6498 109.84 16.5198C110.33 16.4698 110.85 16.6698 111.23 17.0498C111.8 17.6098 112.01 18.2698 111.79 18.8698C111.61 19.3698 111.15 19.6798 110.64 19.7698C109.85 19.8998 109.95 21.3698 110.77 21.3298C111.9 21.2798 112.88 20.4798 113.27 19.4098C113.7 18.2298 113.34 16.9298 112.33 15.9398C111.63 15.2498 110.65 14.8898 109.71 14.9698C107.48 15.1698 105.81 17.1698 105.98 19.4398C106.08 20.7898 106.7 21.9998 107.72 22.8698C108.62 23.6298 109.73 24.0398 110.89 24.0398L110.88 24.0298Z" fill="white"/>
<path fill-rule="evenodd" clip-rule="evenodd" d="M69.8599 17.51C70.2699 17.51 70.6099 17.84 70.6099 18.26C70.6099 18.68 70.2799 19.01 69.8599 19.01H3.45996C3.04996 19.01 2.70996 18.68 2.70996 18.26C2.70996 17.84 3.03996 17.51 3.45996 17.51H69.8499H69.8599Z" fill="white"/>
<path fill-rule="evenodd" clip-rule="evenodd" d="M3.46 13.0798C3.87 13.0798 4.21 13.4098 4.21 13.8298C4.21 14.2498 3.88 14.5798 3.46 14.5798C3.04 14.5798 2.69 14.7398 2.42 15.0098C2.15 15.2798 1.99 15.6398 1.99 16.0498C1.99 16.4598 2.15 16.8198 2.42 17.0898C2.69 17.3498 3.05 17.5198 3.46 17.5198C3.87 17.5198 4.21 17.8498 4.21 18.2698C4.21 18.6898 3.88 19.0198 3.46 19.0198C2.64 19.0198 1.9 18.6898 1.37 18.1498C0.83 17.6098 0.5 16.8698 0.5 16.0598C0.5 15.2498 0.83 14.4998 1.37 13.9698C1.91 13.4298 2.65 13.0998 3.46 13.0998V13.0798Z" fill="white"/>
<path fill-rule="evenodd" clip-rule="evenodd" d="M142.3 19C141.89 19 141.55 18.67 141.55 18.25C141.55 17.83 141.88 17.5 142.3 17.5H208.69C209.1 17.5 209.44 17.83 209.44 18.25C209.44 18.67 209.11 19 208.69 19H142.3Z" fill="white"/>
<path fill-rule="evenodd" clip-rule="evenodd" d="M208.7 14.5698C208.29 14.5698 207.95 14.2398 207.95 13.8198C207.95 13.3998 208.28 13.0698 208.7 13.0698C209.52 13.0698 210.26 13.3998 210.79 13.9398C211.32 14.4798 211.66 15.2198 211.66 16.0298C211.66 16.8398 211.33 17.5898 210.79 18.1198C210.25 18.6598 209.51 18.9898 208.7 18.9898C208.29 18.9898 207.95 18.6598 207.95 18.2398C207.95 17.8198 208.28 17.4898 208.7 17.4898C209.12 17.4898 209.47 17.3298 209.74 17.0598C210 16.7898 210.17 16.4298 210.17 16.0198C210.17 15.6098 210.01 15.2498 209.74 14.9798C209.47 14.7098 209.11 14.5498 208.7 14.5498V14.5698Z" fill="white"/>
<path fill-rule="evenodd" clip-rule="evenodd" d="M106.08 1.75994C105.66 1.75994 105.15 2.29994 105 3.49994C104.69 6.03994 105.48 9.20994 106.08 11.1499C106.68 9.20994 107.48 6.03994 107.16 3.49994C107.01 2.29994 106.5 1.75994 106.08 1.75994ZM106.08 13.8199C105.81 13.8199 105.57 13.6599 105.47 13.4099C105.38 13.1699 103.16 7.60994 103.69 3.33994C103.94 1.33994 105.07 0.439941 106.08 0.439941C107.09 0.439941 108.22 1.33994 108.47 3.33994C109 7.60994 106.79 13.1799 106.69 13.4099C106.59 13.6599 106.35 13.8199 106.08 13.8199Z" fill="white"/>
<path fill-rule="evenodd" clip-rule="evenodd" d="M113.24 9.32988C113.15 9.32988 113.06 9.35988 112.95 9.42988C112.34 9.83988 111.87 10.7198 111.58 11.4898C112.34 11.1898 113.22 10.7298 113.63 10.1099C113.85 9.77988 113.65 9.53988 113.58 9.46988C113.54 9.42988 113.42 9.32988 113.25 9.32988H113.24ZM110.58 13.1598C110.41 13.1598 110.24 13.0898 110.11 12.9698C109.95 12.8098 109.88 12.5798 109.93 12.3598C109.96 12.2398 110.58 9.43988 112.21 8.33988C112.96 7.83988 113.88 7.91988 114.5 8.54988C115.13 9.17988 115.22 10.1099 114.72 10.8598C113.63 12.4998 110.83 13.1298 110.71 13.1498C110.66 13.1598 110.62 13.1698 110.57 13.1698L110.58 13.1598Z" fill="white"/>
<path fill-rule="evenodd" clip-rule="evenodd" d="M98.9099 9.32987C98.7399 9.32987 98.6199 9.42987 98.5799 9.46987C98.5099 9.53987 98.3099 9.77987 98.5299 10.1099C98.9399 10.7298 99.8199 11.1898 100.58 11.4898C100.28 10.7198 99.8199 9.83987 99.1999 9.42987C99.0899 9.35987 98.9999 9.32987 98.9099 9.32987ZM101.58 13.1598C101.58 13.1598 101.49 13.1598 101.44 13.1398C101.32 13.1098 98.5299 12.4798 97.4299 10.8498C96.9299 10.0999 97.0099 9.16987 97.6499 8.53987C98.2799 7.90987 99.1999 7.82987 99.9399 8.32987C101.57 9.42987 102.2 12.2298 102.22 12.3498C102.27 12.5698 102.2 12.7998 102.04 12.9598C101.91 13.0898 101.75 13.1498 101.57 13.1498L101.58 13.1598Z" fill="white"/>
</svg>
